<?xml version="1.0" encoding="iso-8859-1"?>
<!-- Uploaded to: SVG Repo, www.svgrepo.com, Generator: SVG Repo Mixer Tools -->
<svg height="800px" width="800px" version="1.1" id="Layer_1" xmlns="http://www.w3.org/2000/svg" xmlns:xlink="http://www.w3.org/1999/xlink" 
	 viewBox="0 0 511.999 511.999" xml:space="preserve">
<path style="fill:#AA8B65;" d="M330.363,261.325H212.192c-16.822,0-30.462,13.884-30.062,30.796
	c0.387,16.417,14.205,29.348,30.626,29.348h96.293c32.652,0,59.179,26.723,58.862,59.447c-0.314,32.406-27.205,58.284-59.612,58.284
	h-40.93c-0.134,0-0.269,0.001-0.402,0.003c-15.727,0.207-22.796,19.987-10.772,30.127c9.659,8.146,15.796,20.337,15.796,33.962
	h-44.407h-23.172h-27.953c0-17.645,10.294-32.878,25.202-40.039c4.462-2.143,7.863-5.984,9.274-10.728
	c7.231-24.326,29.793-42.119,56.436-42.119h17c16.823,0,30.463-13.885,30.062-30.795c-0.388-16.416-14.205-29.346-30.627-29.346
	h-71.614c-32.652,0-59.18-26.723-58.862-59.447c0.076-7.797,1.703-15.211,4.563-21.982l-66.33-29.375l25.945-23.62l41.172,21.852
	l17.24,7.635c10.214-8.012,23.107-12.795,37.024-12.795h38.807l-42.346-43.784l43.199,3.248l23.059,23.843l21.624-22.358h40.057
	l-10.701,11.064l-27.066,27.985h41.709L330.363,261.325z"/>
<g>
	<path style="fill:#836948;" d="M212.72,350.263h71.613c2.475,0,4.889,0.299,7.209,0.853c-3.06-13.566-15.477-23.556-29.911-23.556
		h-71.613c-10.404,0-20.18-2.722-28.669-7.478C171.432,338.07,190.673,350.263,212.72,350.263z"/>
	<path style="fill:#836948;" d="M337.719,328.947c4.85,8.652,7.593,18.637,7.49,29.266c-0.314,32.406-27.205,58.284-59.612,58.284
		h-40.93c-0.134,0-0.269,0.001-0.402,0.003c-1.373,0.018-2.676,0.194-3.91,0.491c-3.218,1.669-6.261,3.627-9.099,5.839
		c-5.323,6.722-5.516,17.26,2.236,23.797c9.659,8.146,15.796,20.337,15.796,33.963H204.88h-22.184
		c-3.962,6.642-6.239,14.405-6.239,22.702h27.953h23.172h44.407c0-13.626-6.136-25.816-15.796-33.963
		c-12.024-10.14-4.955-29.92,10.772-30.127c0.134-0.002,0.268-0.002,0.402-0.002h40.93c32.408,0,59.298-25.878,59.612-58.284
		C368.127,358.618,355.875,339.116,337.719,328.947z"/>
	<polygon style="fill:#836948;" points="252.655,191.997 209.456,188.748 229.592,209.569 269.65,209.569 	"/>
	<polygon style="fill:#836948;" points="326.694,204.547 337.395,193.482 297.338,193.482 281.78,209.569 321.836,209.569 	"/>
</g>
<g>
	<path style="fill:#3EAC92;" d="M206.347,464.039c0,0-7.973-52.208-77.399-53.869C128.949,410.171,136.256,480.704,206.347,464.039z
		"/>
	<path style="fill:#3EAC92;" d="M367.914,369.635c0,0,25.428,18.692,55.466-9.942C423.379,359.693,390.488,332.978,367.914,369.635z
		"/>
	<path style="fill:#3EAC92;" d="M167.88,193.345c8.568,13.144,13.546,28.84,13.546,45.7H13.825c0-46.282,37.519-83.8,83.8-83.8
		L167.88,193.345z"/>
</g>
<path style="fill:#7CD8A4;" d="M373.707,193.35H91.481c0-101.227,82.062-183.289,183.289-183.289S458.059,92.123,458.059,193.35
	H373.707z"/>
<path style="opacity:0.42;fill:#328777;enable-background:new    ;" d="M347.834,25.217c25.018,22.697,43.737,52.212,53.222,85.613
	c7.145,25.159-11.766,50.171-37.919,50.171h-39.483H94.328c-1.87,10.501-2.847,21.311-2.847,32.349h282.225h84.352
	C458.059,118.095,412.699,53.444,347.834,25.217z"/>
<g>
	<path style="fill:#3EAC92;" d="M194.58,120.628c-9.683,17.12-33.031,22.231-33.031,22.231s-7.649-22.645,2.034-39.763
		s33.031-22.231,33.031-22.231S204.262,103.51,194.58,120.628z"/>
	<path style="fill:#3EAC92;" d="M291.532,111.39c0.522,25.207-21.875,46.114-21.875,46.114s-23.244-19.962-23.766-45.168
		c-0.522-25.206,21.875-46.114,21.875-46.114S291.01,86.183,291.532,111.39z"/>
	<path style="fill:#3EAC92;" d="M384.3,97.456c7.725,18.088-2.389,39.744-2.389,39.744s-22.638-7.669-30.361-25.758
		c-7.725-18.088,2.389-39.744,2.389-39.744S376.575,79.368,384.3,97.456z"/>
</g>
<path style="fill:#328777;" d="M328.265,272.361c0-50.936,39.118-92.229,87.373-92.229s87.374,41.292,87.374,92.229H328.265z"/>
<path style="fill:#266659;" d="M442.129,184.454c10.499,9.127,18.946,20.789,24.498,34.1c7.368,17.666-5.772,37.128-24.913,37.128
	H329.693c-0.936,5.41-1.429,10.983-1.429,16.678h174.746C503.012,231.174,477.433,196.297,442.129,184.454z"/>
<path d="M186.105,474.278c-13.676,0-25.655-3.603-35.782-10.788c-25.153-17.846-28.867-51.12-29.014-52.527
	c-0.228-2.196,0.5-4.382,1.997-6.003c1.497-1.621,3.586-2.506,5.826-2.467c38.809,0.928,59.777,17.054,70.534,30.42
	c11.832,14.702,14.18,29.352,14.274,29.969c0.604,3.952-1.926,7.706-5.817,8.632C200.366,473.356,193.018,474.278,186.105,474.278z
	 M138.489,418.467c2.58,9.361,8.381,23.782,20.802,32.551c9.809,6.925,22.369,9.293,37.414,7.074
	C192.16,446.032,178.299,422.667,138.489,418.467z"/>
<path d="M388.269,383.291c-10.923,0-19.828-3.736-24.904-7.467c-3.222-2.369-4.087-6.811-1.99-10.216
	c7.928-12.876,17.997-20.433,29.927-22.46c19.533-3.314,36.219,10.014,36.921,10.584c1.713,1.391,2.745,3.452,2.833,5.656
	c0.087,2.205-0.778,4.341-2.375,5.865C414.387,378.877,400.137,383.291,388.269,383.291z M367.914,369.635h0.01H367.914z
	 M379.655,366.667c6.732,1.958,17.599,2.63,30.303-5.938c-4.487-1.924-10.261-3.452-16.17-2.422
	C388.645,359.203,383.913,362.007,379.655,366.667z"/>
<path d="M175.919,253.007c-1.053,0-2.113-0.216-3.109-0.658l-17.241-7.635c-3.878-1.717-5.63-6.253-3.912-10.133
	c1.717-3.879,6.254-5.629,10.133-3.912l13.192,5.841c11.156-7.547,24.465-11.659,37.961-11.659h20.693l-25.174-26.029
	c-2.949-3.05-2.868-7.912,0.181-10.859c3.05-2.95,7.913-2.87,10.859,0.181l37.768,39.05c2.144,2.216,2.754,5.499,1.551,8.338
	c-1.204,2.838-3.989,4.682-7.071,4.682h-38.807c-11.646,0-23.111,3.962-32.282,11.157
	C179.283,252.449,177.609,253.007,175.919,253.007z"/>
<path d="M275.663,223.52c-2.081,0-4.074-0.845-5.521-2.341l-23.061-23.842c-2.949-3.05-2.868-7.912,0.181-10.859
	c3.05-2.95,7.913-2.87,10.859,0.181l17.54,18.134l16.103-16.649c2.946-3.051,7.81-3.134,10.859-0.181
	c3.05,2.948,3.131,7.811,0.181,10.859l-21.623,22.357C279.737,222.675,277.744,223.52,275.663,223.52z"/>
<path d="M335.794,240.213h-36.217c-3.084,0-5.867-1.844-7.071-4.682c-1.203-2.838-0.593-6.122,1.552-8.338l37.767-39.05
	c2.947-3.051,7.81-3.134,10.859-0.181c3.05,2.948,3.131,7.811,0.181,10.859l-25.174,26.029h18.104c4.243,0,7.681,3.438,7.681,7.681
	C343.475,236.774,340.035,240.213,335.794,240.213z"/>
<path d="M271.99,510.972h-95.532c-4.243,0-7.681-3.438-7.681-7.681c0-19.904,11.602-38.338,29.557-46.962
	c2.561-1.231,4.47-3.415,5.236-5.994c8.334-28.032,34.569-47.611,63.799-47.611h17c6.069,0,11.756-2.4,16.012-6.759
	c4.253-4.355,6.516-10.1,6.373-16.175c-0.285-12.047-10.579-21.848-22.948-21.848h-71.614c-17.871,0-34.657-7.011-47.264-19.74
	c-12.606-12.728-19.451-29.584-19.278-47.462c0.059-6.057,0.939-12.007,2.626-17.766l-59.823-26.493
	c-3.878-1.717-5.63-6.254-3.912-10.133c1.716-3.877,6.254-5.629,10.133-3.912l66.33,29.375c3.831,1.696,5.596,6.151,3.965,10.009
	c-2.563,6.071-3.895,12.486-3.957,19.069c-0.134,13.747,5.134,26.71,14.83,36.503c9.701,9.794,22.61,15.189,36.35,15.189h71.614
	c20.642,0,37.826,16.529,38.305,36.846c0.242,10.247-3.572,19.932-10.74,27.272c-7.172,7.343-16.76,11.387-27.001,11.387h-17
	c-22.483,0-42.663,15.061-49.073,36.627c-1.998,6.723-6.849,12.359-13.31,15.464c-10.311,4.954-17.651,14.488-20.024,25.435h78.539
	c-1.686-7.904-5.951-15.091-12.259-20.411c-7.958-6.71-10.822-17.408-7.299-27.253c3.522-9.841,12.521-16.287,22.922-16.424
	l0.504-0.004h40.93c28.364,0,51.661-22.734,51.932-50.676c0.134-13.747-5.134-26.71-14.83-36.503
	c-9.701-9.794-22.61-15.189-36.351-15.189h-96.295c-20.642,0-37.826-16.53-38.305-36.847c-0.242-10.246,3.573-19.932,10.742-27.272
	c7.172-7.343,16.759-11.386,26.999-11.386h118.172c4.243,0,7.681,3.438,7.681,7.681s-3.438,7.681-7.681,7.681H212.191
	c-6.068,0-11.755,2.4-16.011,6.758c-4.253,4.355-6.516,10.101-6.374,16.177c0.285,12.047,10.579,21.848,22.948,21.848h96.293
	c17.872,0,34.658,7.011,47.266,19.741c12.605,12.727,19.45,29.583,19.276,47.461c-0.352,36.332-30.539,65.889-67.293,65.889
	l-41.218,0.002c-6.005,0.079-8.158,4.798-8.675,6.242c-0.517,1.446-1.851,6.465,2.738,10.334
	c11.773,9.928,18.526,24.447,18.526,39.834C279.67,507.533,276.231,510.972,271.99,510.972z"/>
<path d="M175.282,245.373H7.681c-4.243,0-7.681-3.438-7.681-7.681c0-50.444,41.038-91.482,91.481-91.482
	c4.243,0,7.681,3.438,7.681,7.681c0,4.243-3.438,7.681-7.681,7.681c-39.38,0-71.872,30.061-75.736,68.44h151.471
	c-1.212-12.062-5.27-23.629-11.916-33.825c-2.316-3.554-1.313-8.312,2.241-10.629c3.551-2.315,8.311-1.314,10.629,2.241
	c9.677,14.845,14.792,32.099,14.792,49.895C182.962,241.935,179.524,245.373,175.282,245.373z"/>
<path d="M504.319,281.437H329.572c-4.243,0-7.681-3.438-7.681-7.681c0-55.09,42.641-99.909,95.054-99.909
	s95.053,44.819,95.053,99.909C512,277.999,508.562,281.437,504.319,281.437z M337.58,266.076h158.733
	c-3.67-43.033-37.865-76.867-79.366-76.867C375.443,189.209,341.25,223.043,337.58,266.076z"/>
<path d="M458.059,199.678c-4.243,0-7.681-3.438-7.681-7.681c0-96.831-78.777-175.609-175.608-175.609
	c-94.261,0-171.413,74.643-175.442,167.929h274.379c4.243,0,7.681,3.438,7.681,7.681c0,4.243-3.438,7.681-7.681,7.681H91.481
	c-4.243,0-7.681-3.438-7.681-7.681C83.8,86.696,169.469,1.027,274.771,1.027c105.3,0,190.97,85.668,190.97,190.971
	C465.74,196.24,462.302,199.678,458.059,199.678z"/>
<path d="M161.543,143.128c-3.231,0-6.201-2.049-7.273-5.224c-0.357-1.058-8.618-26.125,2.625-46.003
	c11.244-19.879,36.983-25.714,38.075-25.953c3.82-0.843,7.665,1.334,8.919,5.045c0.357,1.057,8.619,26.125-2.625,46.003
	s-36.984,25.714-38.076,25.953C162.639,143.07,162.087,143.128,161.543,143.128z M191.031,83.319
	c-6.572,2.623-15.957,7.647-20.763,16.146c-4.806,8.498-4.279,19.128-3.138,26.115c6.573-2.623,15.958-7.647,20.764-16.146
	C192.7,100.936,192.172,90.306,191.031,83.319z"/>
<path d="M269.657,153.674c-1.779,0-3.562-0.615-5.003-1.855c-1.056-0.906-25.855-22.522-26.441-50.836
	c-0.588-28.312,23.295-50.937,24.311-51.887c2.862-2.672,7.275-2.765,10.245-0.212c1.056,0.906,25.855,22.522,26.441,50.836
	c0.587,28.312-23.294,50.937-24.311,51.887C273.426,152.981,271.543,153.674,269.657,153.674z M268.011,65.838
	c-5.858,7.14-14.74,20.393-14.441,34.828c0.301,14.518,9.694,27.336,15.843,34.201c5.858-7.14,14.74-20.393,14.441-34.828
	C283.553,85.521,274.16,72.702,268.011,65.838z"/>
<path d="M381.899,140.785c-0.818,0-1.649-0.131-2.463-0.407c-1.057-0.358-25.991-9.013-34.961-30.016s2.022-44.999,2.494-46.01
	c1.657-3.546,5.714-5.283,9.424-4.025c1.057,0.358,25.991,9.013,34.961,30.016s-2.022,44.999-2.494,46.01
	C387.567,139.121,384.811,140.785,381.899,140.785z M358.379,78.027c-1.906,6.814-3.612,17.323,0.223,26.303
	c3.834,8.979,12.601,15.011,18.846,18.349c1.906-6.814,3.612-17.323-0.223-26.303C373.391,87.397,364.625,81.365,358.379,78.027z"/>
</svg>